:SAMPLES-PER-SECOND 30
:FULLY-SPECIFIED
:DEGREES
77
root  -37.9766 12.3171 0.278708 170.556 84.4175 -163.177
RightUpLeg  -76.4368 -6.80402 6.22058
RightLeg  141.538 20.006 -5.52479
RightFoot  -35.2021 -0.780578 -3.97198
RightToes  1.16414e-010 -1.59028e-015 9.93923e-017
Spine  67.5798 -3.23705 2.31987
Spine1  0.754675 -0.709158 -2.05594
HEad  -29.0507 0.552957 5.33237
LeftShoulder1  9.93923e-017 0 1.22299e-017
LeftArm  0.598283 -30.8712 -72.6177
LeftForeArm  -120.875 -54.4815 162.29
LeftHand  0.0158452 3.60811 15.1782
RightShoulder  1.98785e-016 -4.96962e-017 1.55301e-017
RightArm  -23.9036 15.6212 76.1585
RightForeArm  68.1844 44.8041 -161.561
RightHand  2.77153 2.88784 36.8786
LeftUpLeg  -80.0592 -2.86088 0.485785
LeftLeg  141.315 -20.7721 3.67055
LeftFoot  -30.1819 -0.340089 -1.72891
LeftToes  -6.63929e-010 -3.62392e-011 -1.02376e-010
78
root  -37.3575 13.4946 0.378722 164.19 84.7076 -173.623
RightUpLeg  -75.783 -5.19349 6.38448
RightLeg  139.111 21.2937 -7.12876
RightFoot  -34.8512 -0.253588 -1.29292
RightToes  1.16414e-010 -1.59028e-015 9.93923e-017
Spine  64.9066 -2.4289 1.77091
Spine1  0.658657 -0.112213 -2.62506
HEad  -32.2203 0.0318459 5.25177
LeftShoulder1  9.93923e-017 0 1.22299e-017
LeftArm  1.29478 -29.9216 -73.9095
LeftForeArm  -121.093 -55.5993 161.128
LeftHand  -0.0859459 3.22483 15.0282
RightShoulder  1.98785e-016 -4.96962e-017 1.55301e-017
RightArm  -22.9103 9.96204 77.7929
RightForeArm  67.5467 46.1616 -159.779
RightHand  1.87056 -0.452524 35.2317
LeftUpLeg  -78.3394 -2.57026 0.477203
LeftLeg  139.339 -20.1318 3.57315
LeftFoot  -30.3508 -0.69405 -4.07245
LeftToes  -6.63929e-010 -3.62392e-011 -1.02376e-010
79
root  -36.8112 15.3525 0.483336 177.571 84.0314 -167.321
RightUpLeg  -76.2252 -4.52064 7.37285
RightLeg  134.274 20.6105 -7.97557
RightFoot  -34.0103 0.255578 1.39262
RightToes  1.16414e-010 -1.59028e-015 9.93923e-017
Spine  59.14 -2.78226 2.93844
Spine1  1.98737 0.309704 -2.89485
HEad  -35.1559 -0.40126 5.34319
LeftShoulder1  9.93923e-017 0 1.22299e-017
LeftArm  2.48457 -28.5265 -76.1375
LeftForeArm  -118.207 -58.3213 157.713
LeftHand  -0.144379 3.06513 15.4069
RightShoulder  1.98785e-016 -4.96962e-017 1.55301e-017
RightArm  -21.777 4.46833 79.7038
RightForeArm  68.7998 50.5135 -153.607
RightHand  1.0062 -4.87248 30.7129
LeftUpLeg  -78.9623 -2.87658 2.25048
LeftLeg  135.239 -18.1215 2.63314
LeftFoot  -30.3036 -0.906088 -5.50294
LeftToes  -6.63929e-010 -3.62392e-011 -1.02376e-010
80
root  -36.2802 17.5652 0.654001 170.777 82.5808 179.127
RightUpLeg  -75.6684 -4.36367 5.15585
RightLeg  128.695 18.5059 -7.55621
RightFoot  -33.6544 0.567651 3.13943
RightToes  1.16414e-010 -1.59028e-015 9.93923e-017
Spine  53.6745 -2.25895 1.87651
Spine1  3.18295 -0.180964 -1.8484
HEad  -36.2555 -0.66106 5.55147
LeftShoulder1  9.93923e-017 0 1.22299e-017
LeftArm  3.35217 -26.4581 -78.0449
LeftForeArm  -112.305 -62.5322 150.562
LeftHand  -0.15897 3.09834 16.0168
RightShoulder  1.98785e-016 -4.96962e-017 1.55301e-017
RightArm  -21.0802 -0.265433 81.6647
RightForeArm  70.6822 57.5981 -137.631
RightHand  -0.258295 -12.9578 25.1737
LeftUpLeg  -77.8898 -3.35672 1.0452
LeftLeg  128.672 -16.594 2.12742
LeftFoot  -30.3553 -0.988396 -6.03765
LeftToes  -6.63929e-010 -3.62392e-011 -1.02376e-010
81
root  -35.846 19.9994 0.805664 166.797 81.6217 172.404
RightUpLeg  -70.6129 -4.35498 3.48471
RightLeg  121.397 16.6688 -7.48405
RightFoot  -33.2099 0.695436 3.93419
RightToes  1.16414e-010 -1.59028e-015 9.93923e-017
Spine  52.9147 -1.89513 0.896032
Spine1  2.65653 -0.638022 -0.920726
HEad  -36.0919 -0.824268 5.66135
LeftShoulder1  9.93923e-017 0 1.22299e-017
LeftArm  3.0279 -23.7769 -78.9236
LeftForeArm  -105.908 -67.3367 139.235
LeftHand  -0.223907 2.8967 16.1143
RightShoulder  1.98785e-016 -4.96962e-017 1.55301e-017
RightArm  -19.4777 -4.2012 83.6164
RightForeArm  98.9679 63.0642 -111.239
RightHand  0.799647 -4.9985 29.6727
LeftUpLeg  -72.4661 -3.74115 0.225114
LeftLeg  120.714 -15.6733 2.15159
LeftFoot  -29.8434 -0.963423 -6.06365
LeftToes  -6.63929e-010 -3.62392e-011 -1.02376e-010
82
root  -35.3204 22.3573 0.91641 171.204 81.6208 174.83
RightUpLeg  -65.3564 -4.03595 4.01977
RightLeg  113.219 15.4995 -8.36875
RightFoot  -32.0118 0.719672 4.33145
RightToes  1.16414e-010 -1.59028e-015 9.93923e-017
Spine  52.2161 -1.83553 1.115
Spine1  1.925 -0.574535 -0.59792
HEad  -35.9367 -1.05823 5.76219
LeftShoulder1  9.93923e-017 0 1.22299e-017
LeftArm  4.39759 -20.4331 -80.2159
LeftForeArm  -79.3542 -71.724 110.908
LeftHand  -0.0492464 3.20651 13.9236
RightShoulder  1.98785e-016 -4.96962e-017 1.55301e-017
RightArm  -18.1645 -7.18326 84.7737
RightForeArm  129.429 61.4828 -78.0354
RightHand  0.879085 -4.63401 28.948
LeftUpLeg  -67.262 -3.73896 0.916623
LeftLeg  112.887 -15.0903 2.54238
LeftFoot  -28.6737 -0.928348 -6.30455
LeftToes  -6.63929e-010 -3.62392e-011 -1.02376e-010
83
root  -34.6652 24.5557 1.00932 173.318 81.7131 174.138
RightUpLeg  -61.5913 -3.90804 4.3583
RightLeg  105.255 14.2921 -9.23798
RightFoot  -30.6252 0.668178 4.3427
RightToes  1.16414e-010 -1.59028e-015 9.93923e-017
Spine  49.4601 -1.54648 0.909325
Spine1  1.89126 -0.518697 -0.169738
HEad  -36.1406 -1.35544 6.0071
LeftShoulder1  9.93923e-017 0 1.22299e-017
LeftArm  5.67804 -17.1774 -81.5576
LeftForeArm  -45.6801 -70.0226 72.9414
LeftHand  -0.116894 3.05844 14.6206
RightShoulder  1.98785e-016 -4.96962e-017 1.55301e-017
RightArm  -16.7085 -9.40301 85.4007
RightForeArm  152.252 53.7979 -53.6743
RightHand  0.771492 -5.25989 28.6291
LeftUpLeg  -63.374 -3.90143 1.04704
LeftLeg  105.021 -14.6282 3.37969
LeftFoot  -27.2399 -0.965296 -7.3044
LeftToes  -6.63929e-010 -3.62392e-011 -1.02376e-010
84
root  -33.9382 26.7095 1.08545 172.78 81.7618 171.697
RightUpLeg  -56.8213 -4.03212 4.20482
RightLeg  97.0742 12.8156 -9.63048
RightFoot  -29.6255 0.544373 3.75884
RightToes  1.16414e-010 -1.59028e-015 9.93923e-017
Spine  47.2022 -1.22474 0.539875
Spine1  1.73121 -0.586048 0.378197
HEad  -36.3801 -1.57365 6.18957
LeftShoulder1  9.93923e-017 0 1.22299e-017
LeftArm  7.7839 -14.3146 -83.0558
LeftForeArm  -24.1842 -60.9906 45.707
LeftHand  0.06106 3.44388 12.5068
RightShoulder  1.98785e-016 -4.96962e-017 1.55301e-017
RightArm  -15.2481 -11.1342 85.8008
RightForeArm  166.86 43.7212 -38.6379
RightHand  0.773362 -5.32669 29.5821
LeftUpLeg  -58.505 -4.51358 0.880162
LeftLeg  96.6749 -13.9838 4.44887
LeftFoot  -25.5651 -0.980784 -8.49339
LeftToes  -6.63929e-010 -3.62392e-011 -1.02376e-010
85
root  -33.1235 28.8012 1.14809 173.873 82.1526 172.039
RightUpLeg  -50.7125 -3.96096 4.35261
RightLeg  88.4362 11.1991 -9.59976
RightFoot  -28.6756 0.386792 2.83856
RightToes  1.16414e-010 -1.59028e-015 9.93923e-017
Spine  45.9094 -1.03792 0.759253
Spine1  1.07124 -0.464465 0.562163
HEad  -36.3926 -1.71071 5.99919
LeftShoulder1  9.93923e-017 0 1.22299e-017
LeftArm  11.9368 -11.8016 -84.6011
LeftForeArm  -16.893 -47.6727 30.7335
LeftHand  0.142638 3.38392 9.79939
RightShoulder  1.98785e-016 -4.96962e-017 1.55301e-017
RightArm  -14.0785 -13.0688 86.0829
RightForeArm  176.667 33.6568 -29.1385
RightHand  1.21709 -2.77017 30.0175
LeftUpLeg  -52.5815 -5.26526 1.26267
LeftLeg  88.2172 -13.0624 5.54671
LeftFoot  -23.4985 -0.878365 -9.14097
LeftToes  -6.63929e-010 -3.62392e-011 -1.02376e-010
86
root  -32.209 30.7121 1.20944 175.836 82.902 173.395
RightUpLeg  -44.7452 -3.58816 4.64652
RightLeg  79.9697 9.70524 -8.97264
RightFoot  -27.3112 0.261162 2.11003
RightToes  1.16414e-010 -1.59028e-015 9.93923e-017
Spine  44.0562 -0.860169 1.27688
Spine1  0.41817 -0.134472 0.310651
HEad  -35.975 -1.79559 5.49084
LeftShoulder1  9.93923e-017 0 1.22299e-017
LeftArm  21.3733 -8.99858 -86.1813
LeftForeArm  -23.938 -33.8995 22.2945
LeftHand  0.116733 3.0797 8.59331
RightShoulder  1.98785e-016 -4.96962e-017 1.55301e-017
RightArm  -13.4327 -15.7641 86.2833
RightForeArm  -178.844 25.1543 -23.0311
RightHand  1.76094 0.351383 30.1432
LeftUpLeg  -47.0737 -5.94281 1.86539
LeftLeg  80.3304 -11.9105 6.69527
LeftFoot  -20.8095 -0.711108 -10.0891
LeftToes  -6.63929e-010 -3.62392e-011 -1.02376e-010
87
root  -31.2294 32.3942 1.26702 176.229 83.6445 173.449
RightUpLeg  -38.9117 -3.29858 4.63849
RightLeg  72.0598 8.59634 -7.73881
RightFoot  -25.7415 0.18701 1.70387
RightToes  1.16414e-010 -1.59028e-015 9.93923e-017
Spine  41.6774 -0.697705 1.59264
Spine1  0.0137561 0.0491781 0.0410377
HEad  -34.8348 -1.5893 4.98254
LeftShoulder1  9.93923e-017 0 1.22299e-017
LeftArm  29.0325 -5.27899 -87.1302
LeftForeArm  -34.9723 -23.3114 13.6156
LeftHand  0.238189 3.43024 7.21746
RightShoulder  1.98785e-016 -4.96962e-017 1.55301e-017
RightArm  -14.5834 -18.9267 86.5249
RightForeArm  -178.178 18.2839 -18.3282
RightHand  2.02941 1.73634 30.5546
LeftUpLeg  -42.1967 -6.59667 2.17653
LeftLeg  73.5178 -10.5589 8.00011
LeftFoot  -16.4238 -0.355685 -12.1173
LeftToes  -6.63929e-010 -3.62392e-011 -1.02376e-010
